<?xml version="1.0" ?><!DOCTYPE svg  PUBLIC '-//W3C//DTD SVG 1.1//EN'  'http://www.w3.org/Graphics/SVG/1.1/DTD/svg11.dtd'><svg height="512px" style="enable-background:new 0 0 512 512;" version="1.1" viewBox="0 0 512 512" width="512px" xml:space="preserve" xmlns="http://www.w3.org/2000/svg" xmlns:xlink="http://www.w3.org/1999/xlink"><g id="_x34_15_x2C__Ableton_x2C__application_x2C__daw_x2C__digital_x2C__sequencer"><g><path d="M112.771,227.799H78.802v18.282h33.969V227.799z M112.771,253.589H78.802    v18.282h33.969V253.589z M326.043,222.092h-61.862v18.281h18.4c0.186,0,0.368,0,0.52,0h27.04h0.092h15.811V222.092z     M375.854,247.882h-45.965h-0.091h-15.811v18.28h38.303c0.183-0.029,0.365-0.029,0.552,0h23.012V247.882z M71.292,275.715v-0.091    v-25.698v-0.092v-0.09v-25.576v-0.123v-0.091v-25.575v-0.092v-0.123v-25.575v-0.091v-0.093v-25.606v-0.091v-0.091V121.01v-0.092    v-0.091V95.129v-0.092V74.65c0-2.045,1.681-3.754,3.755-3.754h361.022c2.073,0,3.751,1.709,3.751,3.754v230.854    c0,2.074-1.678,3.754-3.751,3.754H75.047c-2.074,0-3.755-1.68-3.755-3.754V275.715z M449.925,61.008    c-3.419-3.388-8.118-5.523-13.276-5.523H75.32c-5.155,0-9.858,2.105-13.245,5.523c-3.418,3.418-5.524,8.118-5.524,13.276v260.152    c0,5.157,2.105,9.858,5.524,13.276c3.387,3.387,8.089,5.523,13.245,5.523h361.328c5.158,0,9.857-2.137,13.276-5.523    c3.387-3.418,5.492-8.119,5.492-13.276V74.284c0-5.067-2.015-9.706-5.31-13.094L449.925,61.008z M299.367,360.744h-86.738    l-17.333,65.862h121.408L299.367,360.744z M375.762,434.083H190.442h-0.091H136.21v10.378h239.551V434.083z M194.198,164.195h69.4    c2.046,0,3.756,1.679,3.756,3.754v25.789c0,2.076-1.71,3.755-3.756,3.755h-46.725v3.724c0,2.715-2.899,4.639-5.401,3.387    c-1.19-0.487-2.106-1.952-2.106-3.387v-3.724h-15.168c-2.046,0-3.755-1.679-3.755-3.755v-25.789    C190.442,165.874,192.152,164.195,194.198,164.195z M333.549,240.373h46.056c2.077,0,3.755,1.68,3.755,3.756v25.788    c0,2.075-1.678,3.755-3.755,3.755h-23.285v3.723c0,2.717-2.899,4.639-5.401,3.387c-1.189-0.488-2.105-1.953-2.105-3.387v-3.723    h-38.58c-2.074,0-3.752-1.68-3.752-3.755v-22.035h-19.898v3.753c0,2.717-2.899,4.609-5.373,3.357    c-1.19-0.457-2.138-1.953-2.138-3.357v-3.753h-18.646c-2.073,0-3.754-1.68-3.754-3.753v-25.79c0-2.076,1.681-3.755,3.754-3.755    h69.373c2.074,0,3.751,1.679,3.751,3.755V240.373z M155.407,91.375h69.4c2.046,0,3.755,1.709,3.755,3.754v25.789    c0,2.076-1.709,3.754-3.755,3.754h-7.935v3.754c0,2.717-2.899,4.609-5.401,3.357c-1.19-0.457-2.106-1.952-2.106-3.357v-3.754    h-53.958c-2.046,0-3.755-1.678-3.755-3.754V95.129C151.652,93.084,153.361,91.375,155.407,91.375z M78.802,91.375h37.72    c2.078,0,3.755,1.709,3.755,3.754v25.698v0.091v0.092v25.607v0.091v0.091v25.606v0.093v0.091v25.575v0.123v0.092v25.575v0.091    v0.123v25.576v0.09v0.092v25.698c0,2.076-1.678,3.753-3.755,3.753h-37.72v22.402h353.512V78.404H78.802V91.375z M112.771,98.883    H78.802v18.282h33.969V98.883z M112.771,124.672H78.802v18.281h33.969V124.672z M112.771,150.461H78.802v18.282h33.969V150.461z     M112.771,176.251H78.802v18.28h33.969V176.251z M259.847,171.703h-61.897v18.282h14.926c0.151-0.03,0.337-0.03,0.519,0h46.452    V171.703z M221.056,98.883h-61.897v18.282h53.717c0.151,0,0.337,0,0.519,0h7.662V98.883z M209.366,158.428    c0,1.404,0.916,2.898,2.106,3.357c2.502,1.251,5.401-0.641,5.401-3.357v-7.508c0-1.404-0.916-2.899-2.105-3.357    c-2.502-1.251-5.401,0.641-5.401,3.357V158.428z M209.366,231.218c0,1.435,0.916,2.899,2.106,3.388    c2.502,1.251,5.401-0.672,5.401-3.388v-7.478c0-1.434-0.916-2.899-2.105-3.387c-2.502-1.252-5.401,0.67-5.401,3.387V231.218z     M209.366,261.219c0,1.435,0.916,2.899,2.106,3.387c2.502,1.252,5.401-0.67,5.401-3.387v-7.508c0-1.404-0.916-2.898-2.105-3.357    c-2.502-1.25-5.401,0.641-5.401,3.357V261.219z M139.657,141.55c0,1.435,0.916,2.899,2.105,3.388    c2.502,1.251,5.373-0.672,5.373-3.388v-7.478c0-1.434-0.916-2.898-2.105-3.387c-2.502-1.252-5.373,0.67-5.373,3.387V141.55z     M139.657,171.551c0,1.435,0.916,2.9,2.105,3.388c2.502,1.251,5.373-0.671,5.373-3.388v-7.478c0-1.435-0.916-2.899-2.105-3.387    c-2.502-1.251-5.373,0.671-5.373,3.387V171.551z M139.657,201.553c0,1.434,0.916,2.898,2.105,3.387    c2.502,1.252,5.373-0.67,5.373-3.387v-7.509c0-1.403-0.916-2.868-2.105-3.356c-2.502-1.252-5.373,0.671-5.373,3.356V201.553z     M139.657,231.554c0,1.403,0.916,2.899,2.105,3.356c2.502,1.252,5.373-0.641,5.373-3.356v-7.509c0-1.404-0.916-2.898-2.105-3.356    c-2.502-1.251-5.373,0.64-5.373,3.356V231.554z M139.657,261.555c0,1.404,0.916,2.898,2.105,3.357    c2.502,1.25,5.373-0.641,5.373-3.357v-7.509c0-1.403-0.916-2.898-2.105-3.356c-2.502-1.252-5.373,0.641-5.373,3.356V261.555z     M147.135,104.071c0-1.435-0.916-2.899-2.105-3.388c-2.502-1.221-5.373,0.671-5.373,3.388v7.509c0,1.403,0.916,2.898,2.105,3.356    c2.502,1.251,5.373-0.641,5.373-3.356V104.071z M348.813,141.55c0,1.435,0.916,2.899,2.105,3.388    c2.502,1.251,5.401-0.672,5.401-3.388v-7.478c0-1.434-0.948-2.898-2.106-3.387c-2.502-1.252-5.4,0.67-5.4,3.387V141.55z     M348.813,171.551c0,1.435,0.916,2.9,2.105,3.388c2.502,1.251,5.401-0.671,5.401-3.388v-7.478c0-1.435-0.948-2.899-2.106-3.387    c-2.502-1.251-5.4,0.671-5.4,3.387V171.551z M348.813,201.553c0,1.404,0.916,2.898,2.105,3.357    c2.502,1.25,5.401-0.641,5.401-3.357v-7.509c0-1.403-0.948-2.868-2.106-3.356c-2.502-1.252-5.4,0.671-5.4,3.356V201.553z     M348.813,231.554c0,1.403,0.916,2.899,2.105,3.356c2.502,1.252,5.401-0.641,5.401-3.356v-7.509c0-1.404-0.948-2.898-2.106-3.356    c-2.502-1.251-5.4,0.64-5.4,3.356V231.554z M356.319,104.071c0-1.435-0.948-2.899-2.106-3.388c-2.502-1.221-5.4,0.671-5.4,3.388    v7.509c0,1.403,0.916,2.898,2.105,3.356c2.502,1.251,5.401-0.641,5.401-3.356V104.071z M279.071,141.55    c0,1.435,0.947,2.899,2.138,3.388c2.474,1.251,5.373-0.672,5.373-3.388v-7.478c0-1.434-0.916-2.898-2.106-3.387    c-2.502-1.252-5.404,0.67-5.404,3.387V141.55z M279.071,171.551c0,1.435,0.947,2.9,2.138,3.388    c2.474,1.251,5.373-0.671,5.373-3.388v-7.478c0-1.435-0.916-2.899-2.106-3.387c-2.502-1.251-5.404,0.671-5.404,3.387V171.551z     M279.071,201.553c0,1.434,0.947,2.898,2.138,3.387c2.474,1.252,5.373-0.67,5.373-3.387v-7.509c0-1.403-0.916-2.868-2.106-3.356    c-2.502-1.252-5.404,0.671-5.404,3.356V201.553z M279.071,277.516c0,1.436,0.947,2.9,2.138,3.389    c2.474,1.221,5.373-0.672,5.373-3.389v-3.387c0-1.436-0.916-2.899-2.106-3.389c-2.502-1.25-5.404,0.673-5.404,3.389V277.516z     M286.582,104.071c0-1.435-0.916-2.899-2.106-3.388c-2.502-1.221-5.404,0.671-5.404,3.388v7.509c0,1.403,0.947,2.898,2.138,3.356    c2.474,1.251,5.373-0.641,5.373-3.356V104.071z M50.631,468.938c-2.046,0-3.755-1.68-3.755-3.755s1.709-3.754,3.755-3.754h277.58    c2.043,0,3.752,1.679,3.752,3.754s-1.709,3.755-3.752,3.755H50.631z M213.181,485.815c-2.074,0-3.755-1.679-3.755-3.754    s1.681-3.754,3.755-3.754h192.061c2.078,0,3.756,1.679,3.756,3.754s-1.678,3.754-3.756,3.754H213.181z M424.898,485.815    c-2.078,0-3.756-1.679-3.756-3.754s1.678-3.754,3.756-3.754h24.019c2.043,0,3.752,1.679,3.752,3.754s-1.709,3.754-3.752,3.754    H424.898z M39.706,485.297c-2.078,0-3.755-1.679-3.755-3.755c0-2.044,1.678-3.753,3.755-3.753h91.008    c2.078,0,3.755,1.709,3.755,3.753c0,2.076-1.678,3.755-3.755,3.755H39.706z M33.508,166.516c0,2.075-1.709,3.754-3.752,3.754    c-2.078,0-3.755-1.679-3.755-3.754V55.025c0-7.904,3.236-15.107,8.454-20.356c5.25-5.249,12.452-8.484,20.387-8.484h64.063    c2.074,0,3.752,1.679,3.752,3.753c0,2.076-1.678,3.755-3.752,3.755H54.842c-5.889,0-11.23,2.411-15.077,6.257    c-3.875,3.876-6.257,9.217-6.257,15.076V166.516z M457.157,33.692c-2.077,0-3.755-1.679-3.755-3.755    c0-2.074,1.678-3.753,3.755-3.753c7.936,0,15.137,3.266,20.355,8.484c5.219,5.22,8.486,12.422,8.486,20.356v47.123    c0,2.075-1.71,3.754-3.756,3.754c-2.074,0-3.751-1.679-3.751-3.754V55.025c0-5.859-2.411-11.2-6.289-15.046    C468.356,36.104,463.019,33.692,457.157,33.692z M112.771,202.041H78.802v18.28h33.969V202.041z" style="fill-rule:evenodd;clip-rule:evenodd;"/></g></g><g id="Layer_1"/></svg>